<svg id="Layer_2" data-name="Layer 2" xmlns="http://www.w3.org/2000/svg" viewBox="0 0 458.02 221.63" style="background-color:white"><defs><style>.cls-1{font-size:21.9px;font-family:Times-Bold, Times;font-weight:700;}.cls-1,.cls-9{fill:#231f20;}.cls-2{letter-spacing:-0.05em;}.cls-3{fill:none;stroke:#010101;}.cls-4{fill:#0099cf;}.cls-5{fill:#00a2c9;}.cls-5,.cls-6{stroke:#0099cf;}.cls-6,.cls-8{fill:#fff;}.cls-7{fill:#ee3030;}.cls-8{stroke:#000;}.cls-9{font-size:16px;font-family:TimesNewRomanPSMT, Times New Roman;}</style></defs><text class="cls-1" transform="translate(77.49 18.35)">Simple Neural Net<tspan class="cls-2" x="172.74" y="0"> </tspan><tspan x="177.02" y="0">Art Diagram</tspan></text><line class="cls-3" y1="221.13" x2="458.02" y2="221.13"/><path class="cls-4" d="M346.44,340.67v-12h-4.5v-1.59h10.81v1.59h-4.5v12Z" transform="translate(-79.49 -283.36)"/><path class="cls-4" d="M354.38,340.67V327.05h1.68v4.88a3.73,3.73,0,0,1,2.95-1.35,4,4,0,0,1,1.9.43,2.56,2.56,0,0,1,1.15,1.2,5.49,5.49,0,0,1,.35,2.21v6.25h-1.69v-6.25a2.6,2.6,0,0,0-.54-1.83,2,2,0,0,0-1.53-.57,2.71,2.71,0,0,0-1.38.38,2.15,2.15,0,0,0-.93,1.05,4.93,4.93,0,0,0-.28,1.82v5.4Z" transform="translate(-79.49 -283.36)"/><path class="cls-4" d="M371.72,337.49l1.75.22a4.29,4.29,0,0,1-1.52,2.35,4.63,4.63,0,0,1-2.83.83,4.54,4.54,0,0,1-3.45-1.33,5.2,5.2,0,0,1-1.27-3.74,5.45,5.45,0,0,1,1.28-3.86,4.36,4.36,0,0,1,3.34-1.38,4.25,4.25,0,0,1,3.25,1.35,5.41,5.41,0,0,1,1.25,3.8c0,.1,0,.25,0,.44h-7.39a3.8,3.8,0,0,0,.92,2.49,2.78,2.78,0,0,0,2.07.86,2.54,2.54,0,0,0,1.58-.49A3.21,3.21,0,0,0,371.72,337.49Zm-5.51-2.69h5.53a3.34,3.34,0,0,0-.63-1.88,2.59,2.59,0,0,0-2.08-1,2.67,2.67,0,0,0-1.95.77A3.12,3.12,0,0,0,366.21,334.8Z" transform="translate(-79.49 -283.36)"/><path class="cls-4" d="M387.3,339.42a5.74,5.74,0,0,1-1.77,1.14,5.12,5.12,0,0,1-1.86.33,3.64,3.64,0,0,1-2.52-.79,2.65,2.65,0,0,1-.88-2,2.73,2.73,0,0,1,.33-1.33,2.81,2.81,0,0,1,.88-1,4.31,4.31,0,0,1,1.21-.55,11.42,11.42,0,0,1,1.5-.25,14.88,14.88,0,0,0,3-.58c0-.23,0-.37,0-.43a1.84,1.84,0,0,0-.48-1.44,2.79,2.79,0,0,0-1.91-.56,2.9,2.9,0,0,0-1.74.41,2.48,2.48,0,0,0-.84,1.46l-1.69-.22a4.05,4.05,0,0,1,.74-1.69,3.21,3.21,0,0,1,1.49-1,6.65,6.65,0,0,1,2.25-.35,5.94,5.94,0,0,1,2.06.3,2.65,2.65,0,0,1,1.17.74,2.61,2.61,0,0,1,.52,1.14,8.64,8.64,0,0,1,.09,1.54v2.23a24.42,24.42,0,0,0,.1,3,3.64,3.64,0,0,0,.4,1.19h-1.72A3.53,3.53,0,0,1,387.3,339.42Zm-.09-3.71a13.59,13.59,0,0,1-2.77.63,6.8,6.8,0,0,0-1.48.33,1.53,1.53,0,0,0-.67.55,1.45,1.45,0,0,0,.28,1.91,2.2,2.2,0,0,0,1.5.45,3.56,3.56,0,0,0,1.74-.42,2.61,2.61,0,0,0,1.12-1.16,4.07,4.07,0,0,0,.27-1.68Z" transform="translate(-79.49 -283.36)"/><path class="cls-4" d="M391.42,340.67V330.8H393v1.49a4,4,0,0,1,1-1.38,1.82,1.82,0,0,1,1.06-.33,3.21,3.21,0,0,1,1.68.53l-.58,1.54a2.3,2.3,0,0,0-1.2-.35,1.55,1.55,0,0,0-1,.33,1.89,1.89,0,0,0-.61.92,6.66,6.66,0,0,0-.27,1.95v5.17Z" transform="translate(-79.49 -283.36)"/><path class="cls-4" d="M401.41,339.18l.22,1.48a6.13,6.13,0,0,1-1.26.15,2.92,2.92,0,0,1-1.42-.29,1.65,1.65,0,0,1-.71-.75,6.3,6.3,0,0,1-.2-2v-5.67h-1.25v-1.31H398v-2.44l1.69-1v3.45h1.68v1.31h-1.68v5.76a3.29,3.29,0,0,0,.08.92.72.72,0,0,0,.29.33,1.17,1.17,0,0,0,.58.12A4.61,4.61,0,0,0,401.41,339.18Z" transform="translate(-79.49 -283.36)"/><path class="cls-4" d="M408.33,340.67V327.05H410v4.88a3.73,3.73,0,0,1,3-1.35,3.91,3.91,0,0,1,1.89.43,2.54,2.54,0,0,1,1.16,1.2,5.52,5.52,0,0,1,.34,2.21v6.25h-1.68v-6.25a2.6,2.6,0,0,0-.54-1.83,2,2,0,0,0-1.53-.57,2.77,2.77,0,0,0-1.39.38,2.18,2.18,0,0,0-.92,1.05,4.73,4.73,0,0,0-.28,1.82v5.4Z" transform="translate(-79.49 -283.36)"/><path class="cls-4" d="M425.39,339.42a5.74,5.74,0,0,1-1.77,1.14,5.2,5.2,0,0,1-1.86.33,3.61,3.61,0,0,1-2.52-.79,2.61,2.61,0,0,1-.88-2,2.73,2.73,0,0,1,.33-1.33,2.69,2.69,0,0,1,.87-1,4.31,4.31,0,0,1,1.21-.55,12.06,12.06,0,0,1,1.5-.25,14.73,14.73,0,0,0,3-.58c0-.23,0-.37,0-.43a1.87,1.87,0,0,0-.47-1.44,2.81,2.81,0,0,0-1.91-.56,3,3,0,0,0-1.75.41,2.48,2.48,0,0,0-.84,1.46l-1.68-.22a3.93,3.93,0,0,1,.74-1.69,3.17,3.17,0,0,1,1.48-1,6.73,6.73,0,0,1,2.25-.35,5.86,5.86,0,0,1,2.06.3,2.65,2.65,0,0,1,1.17.74,2.62,2.62,0,0,1,.53,1.14,10.13,10.13,0,0,1,.08,1.54v2.23a24.42,24.42,0,0,0,.1,3,3.89,3.89,0,0,0,.4,1.19h-1.72A3.53,3.53,0,0,1,425.39,339.42Zm-.1-3.71a13.43,13.43,0,0,1-2.77.63,6.8,6.8,0,0,0-1.48.33,1.53,1.53,0,0,0-.67.55,1.39,1.39,0,0,0-.23.8,1.41,1.41,0,0,0,.51,1.11,2.2,2.2,0,0,0,1.5.45,3.56,3.56,0,0,0,1.74-.42A2.61,2.61,0,0,0,425,338a4.07,4.07,0,0,0,.27-1.68Z" transform="translate(-79.49 -283.36)"/><path class="cls-4" d="M429.47,344.46V330.8H431v1.29a3.81,3.81,0,0,1,1.22-1.13,3.41,3.41,0,0,1,1.65-.38,4,4,0,0,1,2.24.65,4,4,0,0,1,1.46,1.84,7,7,0,0,1-.05,5.32,4.11,4.11,0,0,1-3.76,2.5,3.14,3.14,0,0,1-1.51-.35,3.55,3.55,0,0,1-1.09-.89v4.81Zm1.5-8.67a4.28,4.28,0,0,0,.78,2.82,2.4,2.4,0,0,0,1.88.91,2.47,2.47,0,0,0,1.92-.94,4.5,4.5,0,0,0,.8-2.93,4.35,4.35,0,0,0-.78-2.82,2.39,2.39,0,0,0-1.87-.94,2.45,2.45,0,0,0-1.9,1A4.46,4.46,0,0,0,431,335.79Z" transform="translate(-79.49 -283.36)"/><path class="cls-4" d="M440.06,344.46V330.8h1.53v1.29a3.81,3.81,0,0,1,1.22-1.13,3.35,3.35,0,0,1,1.65-.38,3.92,3.92,0,0,1,2.23.65,4,4,0,0,1,1.47,1.84,7.13,7.13,0,0,1-.05,5.32,4.1,4.1,0,0,1-1.59,1.86,4.06,4.06,0,0,1-2.18.64,3.08,3.08,0,0,1-1.5-.35,3.33,3.33,0,0,1-1.09-.89v4.81Zm1.5-8.67a4.34,4.34,0,0,0,.77,2.82,2.42,2.42,0,0,0,1.88.91,2.45,2.45,0,0,0,1.92-.94,4.44,4.44,0,0,0,.8-2.93,4.35,4.35,0,0,0-.78-2.82,2.37,2.37,0,0,0-1.86-.94,2.47,2.47,0,0,0-1.91,1A4.45,4.45,0,0,0,441.56,335.79Z" transform="translate(-79.49 -283.36)"/><path class="cls-4" d="M457.44,337.49l1.74.22a4.24,4.24,0,0,1-1.52,2.35,4.61,4.61,0,0,1-2.83.83,4.54,4.54,0,0,1-3.45-1.33,5.24,5.24,0,0,1-1.27-3.74A5.41,5.41,0,0,1,451.4,332a4.34,4.34,0,0,1,3.33-1.38,4.24,4.24,0,0,1,3.25,1.35,5.36,5.36,0,0,1,1.26,3.8c0,.1,0,.25,0,.44h-7.4a3.8,3.8,0,0,0,.92,2.49,2.79,2.79,0,0,0,2.07.86,2.54,2.54,0,0,0,1.58-.49A3.23,3.23,0,0,0,457.44,337.49Zm-5.52-2.69h5.54a3.42,3.42,0,0,0-.64-1.88,2.58,2.58,0,0,0-2.08-1,2.63,2.63,0,0,0-1.94.77A3.08,3.08,0,0,0,451.92,334.8Z" transform="translate(-79.49 -283.36)"/><path class="cls-4" d="M461.26,340.67V330.8h1.53v1.4a3.54,3.54,0,0,1,3.13-1.62,4.17,4.17,0,0,1,1.64.32,2.61,2.61,0,0,1,1.12.84,3.39,3.39,0,0,1,.52,1.24,9.83,9.83,0,0,1,.09,1.62v6.07H467.6v-6a4.56,4.56,0,0,0-.19-1.53,1.6,1.6,0,0,0-.69-.81,2.2,2.2,0,0,0-1.16-.3,2.65,2.65,0,0,0-1.84.68,3.34,3.34,0,0,0-.77,2.58v5.39Z" transform="translate(-79.49 -283.36)"/><path class="cls-4" d="M471.22,337.67l1.66-.21a2.35,2.35,0,0,0,.77,1.53,2.69,2.69,0,0,0,1.77.53,2.62,2.62,0,0,0,1.71-.47,1.41,1.41,0,0,0,.56-1.1,1,1,0,0,0-.49-.89,7.07,7.07,0,0,0-1.7-.57,16.09,16.09,0,0,1-2.55-.8,2.45,2.45,0,0,1-1.45-2.27,2.56,2.56,0,0,1,.3-1.22,2.81,2.81,0,0,1,.82-.93,3.49,3.49,0,0,1,1.06-.49,5.18,5.18,0,0,1,1.45-.2,5.5,5.5,0,0,1,2,.34,2.69,2.69,0,0,1,1.3.91,3.58,3.58,0,0,1,.57,1.53l-1.62.22a1.83,1.83,0,0,0-.65-1.2,2.35,2.35,0,0,0-1.5-.42,2.66,2.66,0,0,0-1.64.38,1.11,1.11,0,0,0-.5.89.88.88,0,0,0,.21.58,1.46,1.46,0,0,0,.64.45c.16.06.66.2,1.47.43a20.12,20.12,0,0,1,2.47.77,2.54,2.54,0,0,1,1.1.88,2.49,2.49,0,0,1,.4,1.43,2.88,2.88,0,0,1-.49,1.58,3.22,3.22,0,0,1-1.41,1.14,5.08,5.08,0,0,1-2.08.4,4.61,4.61,0,0,1-2.93-.81A3.76,3.76,0,0,1,471.22,337.67Z" transform="translate(-79.49 -283.36)"/><path class="cls-4" d="M486.65,340.67V327.05h1.69v4.88a3.7,3.7,0,0,1,2.94-1.35,4,4,0,0,1,1.9.43,2.52,2.52,0,0,1,1.15,1.2,5.49,5.49,0,0,1,.35,2.21v6.25H493v-6.25a2.6,2.6,0,0,0-.54-1.83,2,2,0,0,0-1.52-.57,2.71,2.71,0,0,0-1.39.38,2.25,2.25,0,0,0-.93,1.05,5,5,0,0,0-.27,1.82v5.4Z" transform="translate(-79.49 -283.36)"/><path class="cls-4" d="M504,337.49l1.74.22a4.24,4.24,0,0,1-1.52,2.35,4.61,4.61,0,0,1-2.83.83,4.54,4.54,0,0,1-3.45-1.33,5.2,5.2,0,0,1-1.27-3.74A5.41,5.41,0,0,1,498,332a4.34,4.34,0,0,1,3.33-1.38,4.24,4.24,0,0,1,3.25,1.35,5.36,5.36,0,0,1,1.26,3.8c0,.1,0,.25,0,.44h-7.4a3.8,3.8,0,0,0,.92,2.49,2.79,2.79,0,0,0,2.07.86A2.52,2.52,0,0,0,503,339,3.23,3.23,0,0,0,504,337.49Zm-5.52-2.69H504a3.34,3.34,0,0,0-.63-1.88,2.58,2.58,0,0,0-2.08-1,2.63,2.63,0,0,0-1.94.77A3.08,3.08,0,0,0,498.48,334.8Z" transform="translate(-79.49 -283.36)"/><path class="cls-4" d="M507.82,340.67V330.8h1.53v1.49a4,4,0,0,1,1-1.38,1.82,1.82,0,0,1,1.06-.33,3.21,3.21,0,0,1,1.68.53l-.58,1.54a2.3,2.3,0,0,0-1.2-.35,1.55,1.55,0,0,0-1,.33,1.89,1.89,0,0,0-.61.92,6.66,6.66,0,0,0-.27,1.95v5.17Z" transform="translate(-79.49 -283.36)"/><path class="cls-4" d="M520.92,337.49l1.74.22a4.24,4.24,0,0,1-1.52,2.35,4.61,4.61,0,0,1-2.83.83,4.5,4.5,0,0,1-3.44-1.33,5.2,5.2,0,0,1-1.28-3.74,5.41,5.41,0,0,1,1.29-3.86,4.36,4.36,0,0,1,3.34-1.38,4.23,4.23,0,0,1,3.24,1.35,5.36,5.36,0,0,1,1.26,3.8c0,.1,0,.25,0,.44h-7.4a3.81,3.81,0,0,0,.93,2.49,2.76,2.76,0,0,0,2.07.86,2.51,2.51,0,0,0,1.57-.49A3.23,3.23,0,0,0,520.92,337.49Zm-5.51-2.69h5.53a3.42,3.42,0,0,0-.64-1.88,2.57,2.57,0,0,0-2.08-1,2.63,2.63,0,0,0-1.94.77A3,3,0,0,0,515.41,334.8Z" transform="translate(-79.49 -283.36)"/><line class="cls-3" y1="28.13" x2="458.02" y2="28.13"/><g id="Layer_4" data-name="Layer 4"><g id="Layer_6" data-name="Layer 6"><line class="cls-5" x1="232.39" y1="188.15" x2="316.05" y2="146.16"/><line class="cls-5" x1="232.39" y1="188.15" x2="316.05" y2="103.11"/><line class="cls-5" x1="232.39" y1="145.09" x2="316.05" y2="146.16"/><line class="cls-5" x1="232.39" y1="145.09" x2="316.05" y2="103.11"/><line class="cls-5" x1="232.39" y1="58.98" x2="316.05" y2="146.16"/><line class="cls-5" x1="232.39" y1="58.98" x2="316.05" y2="103.11"/><line class="cls-5" x1="232.39" y1="102.04" x2="316.05" y2="146.16"/><line class="cls-5" x1="232.39" y1="102.04" x2="316.05" y2="103.11"/></g><g id="Layer_5" data-name="Layer 5"><line class="cls-5" x1="149.54" y1="168.52" x2="232.39" y2="188.15"/><line class="cls-5" x1="149.54" y1="168.52" x2="232.39" y2="145.09"/><line class="cls-5" x1="149.54" y1="168.52" x2="232.39" y2="102.04"/><line class="cls-5" x1="149.54" y1="168.52" x2="232.39" y2="58.98"/><line class="cls-5" x1="149.54" y1="124.37" x2="232.39" y2="58.98"/><line class="cls-5" x1="149.54" y1="124.37" x2="232.39" y2="102.04"/><line class="cls-5" x1="149.54" y1="124.37" x2="232.39" y2="145.09"/><line class="cls-5" x1="149.54" y1="124.37" x2="232.39" y2="188.15"/><line class="cls-5" x1="149.54" y1="80.21" x2="232.39" y2="58.98"/><line class="cls-5" x1="149.54" y1="80.21" x2="232.39" y2="102.04"/><line class="cls-5" x1="149.54" y1="80.21" x2="232.39" y2="145.09"/><line class="cls-5" x1="149.54" y1="80.21" x2="232.39" y2="188.15"/></g></g><g id="Layer_3" data-name="Layer 3"><path class="cls-6" d="M311.25,403.52a16.76,16.76,0,1,0-16.76-16.75A16.75,16.75,0,0,0,311.25,403.52Z" transform="translate(-79.49 -283.36)"/><polygon class="cls-7" points="248.83 86.11 222.76 99.53 232.39 102.04 216.92 118.02 242.5 104.57 235.42 99.52 248.83 86.11"/><path class="cls-6" d="M311.25,446.58a16.76,16.76,0,1,0-16.76-16.76A16.75,16.75,0,0,0,311.25,446.58Z" transform="translate(-79.49 -283.36)"/><polygon class="cls-7" points="248.83 129.17 222.76 142.59 232.39 145.09 216.92 161.07 242.5 147.63 235.42 142.57 248.83 129.17"/><path class="cls-6" d="M311.25,360.47a16.76,16.76,0,1,0-16.76-16.76A16.75,16.75,0,0,0,311.25,360.47Z" transform="translate(-79.49 -283.36)"/><polygon class="cls-7" points="248.83 43.06 222.76 56.48 232.39 58.98 216.92 74.96 242.5 61.52 235.42 56.46 248.83 43.06"/><path class="cls-6" d="M311.25,489.64a16.76,16.76,0,1,0-16.76-16.76A16.76,16.76,0,0,0,311.25,489.64Z" transform="translate(-79.49 -283.36)"/><polygon class="cls-7" points="248.83 172.22 222.76 185.64 232.39 188.15 216.92 204.13 242.5 190.69 235.42 185.63 248.83 172.22"/><path class="cls-8" d="M394.91,447.65a16.76,16.76,0,1,0-16.76-16.76A16.76,16.76,0,0,0,394.91,447.65Z" transform="translate(-79.49 -283.36)"/><path class="cls-8" d="M394.91,404.6a16.76,16.76,0,1,0-16.76-16.76A16.77,16.77,0,0,0,394.91,404.6Z" transform="translate(-79.49 -283.36)"/><path class="cls-8" d="M228.4,470a16.76,16.76,0,1,0-16.76-16.76A16.75,16.75,0,0,0,228.4,470Z" transform="translate(-79.49 -283.36)"/><path class="cls-8" d="M228.4,425.85a16.76,16.76,0,1,0-16.76-16.75A16.75,16.75,0,0,0,228.4,425.85Z" transform="translate(-79.49 -283.36)"/><path class="cls-8" d="M228.4,381.7a16.76,16.76,0,1,0-16.76-16.76A16.75,16.75,0,0,0,228.4,381.7Z" transform="translate(-79.49 -283.36)"/></g><g id="Layer_7" data-name="Layer 7"><text class="cls-9" transform="translate(11.31 205.14)">psychothan ca. 2021</text></g></svg>